{
	"asset":{
		"generator":"Khronos glTF Blender I/O v4.0.44",
		"version":"2.0"
	},
	"extensionsUsed":[
		"KHR_materials_unlit"
	],
	"scene":0,
	"scenes":[
		{
			"name":"Scene",
			"nodes":[
				0,
				1,
				2,
				3,
				4,
				5,
				6,
				7,
				8,
				9,
				10,
				11,
				12,
				13,
				14,
				15,
				16,
				17,
				18,
				19,
				20,
				21,
				22,
				23,
				24,
				25,
				26,
				27,
				28,
				29,
				30,
				31,
				32,
				33,
				34,
				35,
				36,
				37,
				38,
				39,
				40
			]
		}
	],
	"nodes":[
		{
			"mesh":0,
			"name":"G-Object.002_dupli",
			"scale":[
				0.2358909696340561,
				0.2358909696340561,
				0.2358909696340561
			],
			"translation":[
				-6.382182598114014,
				-0.3230266869068146,
				2.604641914367676
			]
		},
		{
			"mesh":1,
			"name":"_(Loose Entity)",
			"scale":[
				0.02363496832549572,
				0.02363496832549572,
				0.02363496832549572
			],
			"translation":[
				-6.382182598114014,
				-0.3230266869068146,
				2.604641914367676
			]
		},
		{
			"name":"C-b8b7c10b-62c7-4f6b-9408-d73fd3a9b7d7.002",
			"translation":[
				46.18768310546875,
				0,
				-308.8872375488281
			]
		},
		{
			"mesh":2,
			"name":"Circle.002",
			"rotation":[
				-1,
				0,
				0,
				1.6292068494294654e-07
			],
			"scale":[
				0.9447214603424072,
				0.9447214603424072,
				0.9447214603424072
			],
			"translation":[
				-3.9655919075012207,
				1.647869348526001,
				-6.169274806976318
			]
		},
		{
			"mesh":3,
			"name":"_(Loose Entity).002",
			"scale":[
				0.02363496832549572,
				0.02363496832549572,
				0.02363496832549572
			],
			"translation":[
				-6.382182598114014,
				-0.3230266869068146,
				2.604641914367676
			]
		},
		{
			"mesh":4,
			"name":"G-Object.003",
			"rotation":[
				0.06124188378453255,
				-0.7354673743247986,
				-0.046724602580070496,
				0.6731671094894409
			],
			"scale":[
				1.894579291343689,
				1.894579291343689,
				1.894579529762268
			],
			"translation":[
				-1.4561562538146973,
				1.6045570373535156,
				2.0146255493164062
			]
		},
		{
			"mesh":5,
			"name":"G-Object.013",
			"rotation":[
				-0.046724602580070496,
				0.6731672286987305,
				-0.06124189496040344,
				0.7354673743247986
			],
			"scale":[
				1.8945789337158203,
				1.894579291343689,
				1.8945785760879517
			],
			"translation":[
				-2.812675714492798,
				1.614346981048584,
				-2.797863483428955
			]
		},
		{
			"mesh":6,
			"name":"G-Object.015",
			"rotation":[
				-0.07634386420249939,
				0.996055006980896,
				-0.010265280492603779,
				0.04405277967453003
			],
			"scale":[
				1.8945789337158203,
				1.894579291343689,
				1.8945785760879517
			],
			"translation":[
				-5.781490802764893,
				1.614346981048584,
				-0.15428543090820312
			]
		},
		{
			"mesh":7,
			"name":"G-Object.017",
			"rotation":[
				0.06124189496040344,
				-0.7354673743247986,
				-0.046724606305360794,
				0.6731671094894409
			],
			"scale":[
				1.8943862915039062,
				1.8945600986480713,
				1.8685591220855713
			],
			"translation":[
				-4.881789684295654,
				1.614346981048584,
				-7.1576762199401855
			]
		},
		{
			"mesh":8,
			"name":"G-Object.007",
			"rotation":[
				0.061241887509822845,
				-0.7354673743247986,
				-0.046724602580070496,
				0.6731671094894409
			],
			"scale":[
				1.894579291343689,
				1.894579291343689,
				1.894579291343689
			],
			"translation":[
				-4.032409191131592,
				1.614346981048584,
				-9.746007919311523
			]
		},
		{
			"mesh":9,
			"name":"G-Object.019",
			"rotation":[
				-0.04672463238239288,
				0.67316734790802,
				-0.06124195083975792,
				0.7354671955108643
			],
			"scale":[
				1.8945794105529785,
				1.8945794105529785,
				1.8945789337158203
			],
			"translation":[
				0.7941577434539795,
				1.5000625848770142,
				-6.395186901092529
			]
		},
		{
			"mesh":10,
			"name":"G-Object.021",
			"rotation":[
				0.010265277698636055,
				-0.044052738696336746,
				-0.07634390145540237,
				0.996055006980896
			],
			"scale":[
				1.8945788145065308,
				1.8945794105529785,
				1.8945786952972412
			],
			"translation":[
				2.6249520778656006,
				1.5000629425048828,
				-5.319173812866211
			]
		},
		{
			"mesh":11,
			"name":"G-Object.023",
			"rotation":[
				0.010265277698636055,
				-0.044052738696336746,
				-0.07634390145540237,
				0.996055006980896
			],
			"scale":[
				1.8945788145065308,
				1.8945794105529785,
				1.8945786952972412
			],
			"translation":[
				2.6249520778656006,
				1.5000629425048828,
				-2.6661767959594727
			]
		},
		{
			"mesh":12,
			"name":"G-Object.025",
			"rotation":[
				0.061241939663887024,
				-0.735467255115509,
				-0.046724651008844376,
				0.6731672286987305
			],
			"scale":[
				1.8945788145065308,
				1.8945794105529785,
				1.8945785760879517
			],
			"translation":[
				1.898942232131958,
				1.5000629425048828,
				-1.598466396331787
			]
		},
		{
			"mesh":13,
			"name":"G-Object.026",
			"rotation":[
				0.061241865158081055,
				-0.735467255115509,
				-0.04672457277774811,
				0.6731672286987305
			],
			"scale":[
				1.8945789337158203,
				1.894579291343689,
				1.8945785760879517
			],
			"translation":[
				-2.865875482559204,
				1.614346981048584,
				-3.9175186157226562
			]
		},
		{
			"mesh":14,
			"name":"G-Object.027",
			"rotation":[
				0.061241865158081055,
				-0.735467255115509,
				-0.04672457277774811,
				0.6731672286987305
			],
			"scale":[
				1.8945789337158203,
				1.894579291343689,
				1.8945785760879517
			],
			"translation":[
				-2.865875482559204,
				1.614346981048584,
				-3.9175186157226562
			]
		},
		{
			"mesh":15,
			"name":"G-Object.008",
			"rotation":[
				0.06124188378453255,
				-0.7354673743247986,
				-0.046724602580070496,
				0.6731671094894409
			],
			"scale":[
				1.894579291343689,
				1.894579291343689,
				1.894579529762268
			],
			"translation":[
				-4.123956203460693,
				1.614346981048584,
				2.0032057762145996
			]
		},
		{
			"mesh":16,
			"name":"G-Object.028",
			"rotation":[
				0.010265277698636055,
				-0.044052738696336746,
				-0.07634390145540237,
				0.996055006980896
			],
			"scale":[
				1.8945788145065308,
				1.8945794105529785,
				1.8945786952972412
			],
			"translation":[
				2.617082357406616,
				1.5000629425048828,
				0.07334089279174805
			]
		},
		{
			"mesh":17,
			"name":"G-Object.031",
			"rotation":[
				0.010265277698636055,
				-0.044052738696336746,
				-0.07634390145540237,
				0.996055006980896
			],
			"scale":[
				1.8945788145065308,
				1.8945794105529785,
				1.8945786952972412
			],
			"translation":[
				2.617082357406616,
				1.5000629425048828,
				1.4676198959350586
			]
		},
		{
			"mesh":18,
			"name":"G-Object.033",
			"rotation":[
				0.061241939663887024,
				-0.735467255115509,
				-0.046724651008844376,
				0.6731672286987305
			],
			"scale":[
				1.8945788145065308,
				1.8945794105529785,
				1.8945785760879517
			],
			"translation":[
				1.8820786476135254,
				1.5000629425048828,
				2.0019102096557617
			]
		},
		{
			"mesh":19,
			"name":"G-Object.035",
			"rotation":[
				-0.04672463983297348,
				0.67316734790802,
				-0.06124194338917732,
				0.7354671955108643
			],
			"scale":[
				1.8945791721343994,
				1.8945794105529785,
				1.8945789337158203
			],
			"translation":[
				1.952134370803833,
				1.5000629425048828,
				-0.4899885654449463
			]
		},
		{
			"mesh":20,
			"name":"G-Object.037",
			"rotation":[
				0.010265277698636055,
				-0.044052738696336746,
				-0.07634390145540237,
				0.996055006980896
			],
			"scale":[
				1.8945788145065308,
				1.8945794105529785,
				1.8945786952972412
			],
			"translation":[
				-2.1774790287017822,
				1.5000629425048828,
				-8.029157638549805
			]
		},
		{
			"mesh":21,
			"name":"G-Object.039",
			"rotation":[
				-0.07634390145540237,
				0.9960550665855408,
				-0.010265282355248928,
				0.04405278339982033
			],
			"scale":[
				1.8945788145065308,
				1.8945794105529785,
				1.8945785760879517
			],
			"translation":[
				-5.781726360321045,
				1.5000629425048828,
				-3.399332046508789
			]
		},
		{
			"mesh":22,
			"name":"G-Object.001",
			"rotation":[
				0.061241865158081055,
				-0.735467255115509,
				-0.04672457277774811,
				0.6731672286987305
			],
			"scale":[
				1.8945789337158203,
				1.894579291343689,
				1.8945785760879517
			],
			"translation":[
				-2.865875482559204,
				1.614346981048584,
				-3.9175186157226562
			]
		},
		{
			"mesh":23,
			"name":"Plane.001",
			"rotation":[
				0.7071068286895752,
				0,
				0,
				0.7071068286895752
			],
			"scale":[
				0.12237510085105896,
				0.12237510085105896,
				0.07435979694128036
			],
			"translation":[
				-2.317729949951172,
				0.48779019713401794,
				-3.3026695251464844
			]
		},
		{
			"mesh":24,
			"name":"Plane.002",
			"rotation":[
				0.7071068286895752,
				0,
				0,
				0.7071068286895752
			],
			"scale":[
				0.12237510085105896,
				0.12237510085105896,
				0.07435979694128036
			],
			"translation":[
				1.4251474142074585,
				0.48779019713401794,
				-6.8909687995910645
			]
		},
		{
			"mesh":25,
			"name":"Plane.003",
			"rotation":[
				0.7071068286895752,
				0,
				0,
				0.7071068286895752
			],
			"scale":[
				0.12237510085105896,
				0.12237510085105896,
				0.07435979694128036
			],
			"translation":[
				-3.476475954055786,
				0.48779019713401794,
				-9.293301582336426
			]
		},
		{
			"mesh":26,
			"name":"Plane.004",
			"rotation":[
				0.7071068286895752,
				0,
				0,
				0.7071068286895752
			],
			"scale":[
				0.12237510085105896,
				0.12237510085105896,
				0.07435979694128036
			],
			"translation":[
				2.4851784706115723,
				0.48779019713401794,
				-0.9923567175865173
			]
		},
		{
			"mesh":27,
			"name":"Plane.005",
			"rotation":[
				0.5,
				0.5,
				-0.5,
				0.4999999701976776
			],
			"scale":[
				0.12237510085105896,
				0.12237510085105896,
				0.07435979694128036
			],
			"translation":[
				-6.27243185043335,
				0.48779019713401794,
				-0.675879955291748
			]
		},
		{
			"mesh":28,
			"name":"Plane.006",
			"rotation":[
				0.5,
				0.5,
				-0.5,
				0.4999999701976776
			],
			"scale":[
				0.12237510085105896,
				0.12237510085105896,
				0.07435979694128036
			],
			"translation":[
				-6.273828983306885,
				0.48779019713401794,
				-3.9165260791778564
			]
		},
		{
			"mesh":29,
			"name":"Plane.007",
			"rotation":[
				0.5,
				0.5,
				-0.5,
				0.4999999701976776
			],
			"scale":[
				0.12237510085105896,
				0.12237510085105896,
				0.07435979694128036
			],
			"translation":[
				-6.273828983306885,
				0.48779019713401794,
				-7.227049350738525
			]
		},
		{
			"mesh":30,
			"name":"Plane.008",
			"rotation":[
				0.5,
				-0.5,
				0.5,
				0.4999999701976776
			],
			"scale":[
				0.12237510085105896,
				0.12237510085105896,
				0.07435979694128036
			],
			"translation":[
				3.117593288421631,
				0.48779019713401794,
				-2.0193283557891846
			]
		},
		{
			"mesh":31,
			"name":"Plane.009",
			"rotation":[
				0.5,
				-0.5,
				0.5,
				0.4999999701976776
			],
			"scale":[
				0.12237510085105896,
				0.12237510085105896,
				0.07435979694128036
			],
			"translation":[
				3.117593288421631,
				0.48779019713401794,
				-4.803324222564697
			]
		},
		{
			"mesh":32,
			"name":"Plane.010",
			"rotation":[
				0,
				-0.7071068286895752,
				0.7071068286895752,
				1.1520232590100932e-07
			],
			"scale":[
				0.12237510085105896,
				0.12237510085105896,
				0.07435979694128036
			],
			"translation":[
				1.3864939212799072,
				0.48779019713401794,
				-1.091707468032837
			]
		},
		{
			"mesh":33,
			"name":"Plane.011",
			"rotation":[
				0,
				-0.7071068286895752,
				0.7071068286895752,
				1.1520232590100932e-07
			],
			"scale":[
				0.12237510085105896,
				0.12237510085105896,
				0.07435979694128036
			],
			"translation":[
				1.371288537979126,
				0.48779019713401794,
				2.5128297805786133
			]
		},
		{
			"mesh":34,
			"name":"Plane.012",
			"rotation":[
				0,
				-0.7071068286895752,
				0.7071068286895752,
				1.1520232590100932e-07
			],
			"scale":[
				0.12237510085105896,
				0.12237510085105896,
				0.07435979694128036
			],
			"translation":[
				-1.9805115461349487,
				0.48779019713401794,
				2.5128297805786133
			]
		},
		{
			"mesh":35,
			"name":"Plane.013",
			"rotation":[
				0,
				-0.7071068286895752,
				0.7071068286895752,
				1.1520232590100932e-07
			],
			"scale":[
				0.12237510085105896,
				0.12237510085105896,
				0.07435979694128036
			],
			"translation":[
				-4.648130416870117,
				0.48779019713401794,
				2.5128297805786133
			]
		},
		{
			"mesh":36,
			"name":"Plane.014",
			"rotation":[
				0.5,
				-0.4999999701976776,
				0.5,
				0.5
			],
			"scale":[
				0.12237510085105896,
				0.12237510085105896,
				0.07435979694128036
			],
			"translation":[
				3.1318020820617676,
				0.48779019713401794,
				0.5947496294975281
			]
		},
		{
			"mesh":37,
			"name":"Plane.015",
			"rotation":[
				0.5,
				-0.4999999701976776,
				0.5,
				0.5
			],
			"scale":[
				0.12237510085105896,
				0.12237510085105896,
				0.07435979694128036
			],
			"translation":[
				3.1318020820617676,
				0.48779019713401794,
				1.9905052185058594
			]
		},
		{
			"mesh":38,
			"name":"Plane.016",
			"rotation":[
				0,
				-0.7071068286895752,
				0.7071068286895752,
				1.1520233300643667e-07
			],
			"scale":[
				0.1329631507396698,
				0.1329631507396698,
				0.08079349994659424
			],
			"translation":[
				-3.3776278495788574,
				0.48779019713401794,
				-3.4001128673553467
			]
		},
		{
			"mesh":39,
			"name":"Plane.017",
			"rotation":[
				0.5,
				-0.4999999701976776,
				0.5,
				0.5
			],
			"scale":[
				0.12237510085105896,
				0.12237510085105896,
				0.07435979694128036
			],
			"translation":[
				-1.6741809844970703,
				0.48779019713401794,
				-7.513177394866943
			]
		}
	],
	"materials":[
		{
			"doubleSided":true,
			"extensions":{
				"KHR_materials_unlit":{}
			},
			"name":"Floor",
			"pbrMetallicRoughness":{
				"baseColorTexture":{
					"index":0
				},
				"metallicFactor":0,
				"roughnessFactor":0.9
			}
		},
		{
			"doubleSided":true,
			"extensions":{
				"KHR_materials_unlit":{}
			},
			"name":"LUZ",
			"pbrMetallicRoughness":{
				"baseColorTexture":{
					"index":1
				},
				"metallicFactor":0,
				"roughnessFactor":0.9
			}
		},
		{
			"doubleSided":true,
			"extensions":{
				"KHR_materials_unlit":{}
			},
			"name":"METAL",
			"pbrMetallicRoughness":{
				"baseColorTexture":{
					"index":2
				},
				"metallicFactor":0,
				"roughnessFactor":0.9
			}
		},
		{
			"doubleSided":true,
			"extensions":{
				"KHR_materials_unlit":{}
			},
			"name":"TETO",
			"pbrMetallicRoughness":{
				"baseColorTexture":{
					"index":3
				},
				"metallicFactor":0,
				"roughnessFactor":0.9
			}
		},
		{
			"doubleSided":true,
			"extensions":{
				"KHR_materials_unlit":{}
			},
			"name":"Wall",
			"pbrMetallicRoughness":{
				"baseColorTexture":{
					"index":4
				},
				"metallicFactor":0,
				"roughnessFactor":0.9
			}
		},
		{
			"doubleSided":true,
			"extensions":{
				"KHR_materials_unlit":{}
			},
			"name":"Pequenos Saltimbancos",
			"pbrMetallicRoughness":{
				"baseColorTexture":{
					"index":5
				},
				"metallicFactor":0,
				"roughnessFactor":0.9
			}
		},
		{
			"doubleSided":true,
			"extensions":{
				"KHR_materials_unlit":{}
			},
			"name":"O Juiz e a Cidade",
			"pbrMetallicRoughness":{
				"baseColorTexture":{
					"index":6
				},
				"metallicFactor":0,
				"roughnessFactor":0.9
			}
		},
		{
			"doubleSided":true,
			"extensions":{
				"KHR_materials_unlit":{}
			},
			"name":"Espelho Vermelho",
			"pbrMetallicRoughness":{
				"baseColorTexture":{
					"index":7
				},
				"metallicFactor":0,
				"roughnessFactor":0.9
			}
		},
		{
			"doubleSided":true,
			"extensions":{
				"KHR_materials_unlit":{}
			},
			"name":"Flores Pintura",
			"pbrMetallicRoughness":{
				"baseColorTexture":{
					"index":8
				},
				"metallicFactor":0,
				"roughnessFactor":0.9
			}
		},
		{
			"doubleSided":true,
			"extensions":{
				"KHR_materials_unlit":{}
			},
			"name":"S\u00e3o Francisco",
			"pbrMetallicRoughness":{
				"baseColorTexture":{
					"index":9
				},
				"metallicFactor":0,
				"roughnessFactor":0.9
			}
		},
		{
			"doubleSided":true,
			"extensions":{
				"KHR_materials_unlit":{}
			},
			"name":"Pipoqueiro",
			"pbrMetallicRoughness":{
				"baseColorTexture":{
					"index":10
				},
				"metallicFactor":0,
				"roughnessFactor":0.9
			}
		},
		{
			"doubleSided":true,
			"extensions":{
				"KHR_materials_unlit":{}
			},
			"name":"Dulcineia",
			"pbrMetallicRoughness":{
				"baseColorTexture":{
					"index":11
				},
				"metallicFactor":0,
				"roughnessFactor":0.9
			}
		},
		{
			"doubleSided":true,
			"extensions":{
				"KHR_materials_unlit":{}
			},
			"name":"ACERVO UFG 9",
			"pbrMetallicRoughness":{
				"baseColorTexture":{
					"index":12
				},
				"metallicFactor":0,
				"roughnessFactor":0.9
			}
		},
		{
			"doubleSided":true,
			"extensions":{
				"KHR_materials_unlit":{}
			},
			"name":"ACERVO UFG 10",
			"pbrMetallicRoughness":{
				"baseColorTexture":{
					"index":13
				},
				"metallicFactor":0,
				"roughnessFactor":0.9
			}
		},
		{
			"doubleSided":true,
			"extensions":{
				"KHR_materials_unlit":{}
			},
			"name":"Spots",
			"pbrMetallicRoughness":{
				"baseColorTexture":{
					"index":14
				},
				"metallicFactor":0,
				"roughnessFactor":0.9
			}
		},
		{
			"doubleSided":true,
			"extensions":{
				"KHR_materials_unlit":{}
			},
			"name":"D. quixote e sancho pan\u00e7a",
			"pbrMetallicRoughness":{
				"baseColorTexture":{
					"index":15
				},
				"metallicFactor":0,
				"roughnessFactor":0.9
			}
		},
		{
			"doubleSided":true,
			"extensions":{
				"KHR_materials_unlit":{}
			},
			"name":"Dama do Biombo Azul",
			"pbrMetallicRoughness":{
				"baseColorTexture":{
					"index":16
				},
				"metallicFactor":0,
				"roughnessFactor":0.9
			}
		},
		{
			"doubleSided":true,
			"extensions":{
				"KHR_materials_unlit":{}
			},
			"name":"ACERVO UFG 3",
			"pbrMetallicRoughness":{
				"baseColorTexture":{
					"index":17
				},
				"metallicFactor":0,
				"roughnessFactor":0.9
			}
		},
		{
			"doubleSided":true,
			"extensions":{
				"KHR_materials_unlit":{}
			},
			"name":"ACERVO UFG 4",
			"pbrMetallicRoughness":{
				"baseColorTexture":{
					"index":18
				},
				"metallicFactor":0,
				"roughnessFactor":0.9
			}
		},
		{
			"doubleSided":true,
			"extensions":{
				"KHR_materials_unlit":{}
			},
			"name":"ACERVO UFG 5",
			"pbrMetallicRoughness":{
				"baseColorTexture":{
					"index":19
				},
				"metallicFactor":0,
				"roughnessFactor":0.9
			}
		},
		{
			"doubleSided":true,
			"extensions":{
				"KHR_materials_unlit":{}
			},
			"name":"ACERVO UFG 6",
			"pbrMetallicRoughness":{
				"baseColorTexture":{
					"index":20
				},
				"metallicFactor":0,
				"roughnessFactor":0.9
			}
		},
		{
			"doubleSided":true,
			"extensions":{
				"KHR_materials_unlit":{}
			},
			"name":"ACERVO UFG 7.001",
			"pbrMetallicRoughness":{
				"baseColorTexture":{
					"index":21
				},
				"metallicFactor":0,
				"roughnessFactor":0.9
			}
		},
		{
			"doubleSided":true,
			"extensions":{
				"KHR_materials_unlit":{}
			},
			"name":"ACERVO UFG 7",
			"pbrMetallicRoughness":{
				"baseColorTexture":{
					"index":22
				},
				"metallicFactor":0,
				"roughnessFactor":0.9
			}
		},
		{
			"doubleSided":true,
			"extensions":{
				"KHR_materials_unlit":{}
			},
			"name":"Pinturas",
			"pbrMetallicRoughness":{
				"baseColorTexture":{
					"index":23
				},
				"metallicFactor":0,
				"roughnessFactor":0.9
			}
		},
		{
			"doubleSided":true,
			"extensions":{
				"KHR_materials_unlit":{}
			},
			"name":"Material.001",
			"pbrMetallicRoughness":{
				"baseColorTexture":{
					"index":24
				},
				"metallicFactor":0,
				"roughnessFactor":0.9
			}
		},
		{
			"doubleSided":true,
			"extensions":{
				"KHR_materials_unlit":{}
			},
			"name":"Material.013",
			"pbrMetallicRoughness":{
				"baseColorTexture":{
					"index":25
				},
				"metallicFactor":0,
				"roughnessFactor":0.9
			}
		},
		{
			"doubleSided":true,
			"extensions":{
				"KHR_materials_unlit":{}
			},
			"name":"Material.006",
			"pbrMetallicRoughness":{
				"baseColorTexture":{
					"index":26
				},
				"metallicFactor":0,
				"roughnessFactor":0.9
			}
		},
		{
			"doubleSided":true,
			"extensions":{
				"KHR_materials_unlit":{}
			},
			"name":"Material.011",
			"pbrMetallicRoughness":{
				"baseColorTexture":{
					"index":27
				},
				"metallicFactor":0,
				"roughnessFactor":0.9
			}
		},
		{
			"doubleSided":true,
			"extensions":{
				"KHR_materials_unlit":{}
			},
			"name":"Material.004",
			"pbrMetallicRoughness":{
				"baseColorTexture":{
					"index":28
				},
				"metallicFactor":0,
				"roughnessFactor":0.9
			}
		},
		{
			"doubleSided":true,
			"extensions":{
				"KHR_materials_unlit":{}
			},
			"name":"Material.005",
			"pbrMetallicRoughness":{
				"baseColorTexture":{
					"index":29
				},
				"metallicFactor":0,
				"roughnessFactor":0.9
			}
		},
		{
			"doubleSided":true,
			"extensions":{
				"KHR_materials_unlit":{}
			},
			"name":"Material.009",
			"pbrMetallicRoughness":{
				"baseColorTexture":{
					"index":30
				},
				"metallicFactor":0,
				"roughnessFactor":0.9
			}
		},
		{
			"doubleSided":true,
			"extensions":{
				"KHR_materials_unlit":{}
			},
			"name":"Material.008",
			"pbrMetallicRoughness":{
				"baseColorTexture":{
					"index":31
				},
				"metallicFactor":0,
				"roughnessFactor":0.9
			}
		},
		{
			"doubleSided":true,
			"extensions":{
				"KHR_materials_unlit":{}
			},
			"name":"Material.010",
			"pbrMetallicRoughness":{
				"baseColorTexture":{
					"index":32
				},
				"metallicFactor":0,
				"roughnessFactor":0.9
			}
		},
		{
			"doubleSided":true,
			"extensions":{
				"KHR_materials_unlit":{}
			},
			"name":"Material.002",
			"pbrMetallicRoughness":{
				"baseColorTexture":{
					"index":33
				},
				"metallicFactor":0,
				"roughnessFactor":0.9
			}
		},
		{
			"doubleSided":true,
			"extensions":{
				"KHR_materials_unlit":{}
			},
			"name":"Material.003",
			"pbrMetallicRoughness":{
				"baseColorTexture":{
					"index":34
				},
				"metallicFactor":0,
				"roughnessFactor":0.9
			}
		},
		{
			"doubleSided":true,
			"extensions":{
				"KHR_materials_unlit":{}
			},
			"name":"Material.007",
			"pbrMetallicRoughness":{
				"baseColorTexture":{
					"index":35
				},
				"metallicFactor":0,
				"roughnessFactor":0.9
			}
		}
	],
	"meshes":[
		{
			"name":"G-Object.002_dupli",
			"primitives":[
				{
					"attributes":{
						"POSITION":0,
						"NORMAL":1
					},
					"indices":2
				}
			]
		},
		{
			"name":"_(Loose Entity)",
			"primitives":[
				{
					"attributes":{
						"POSITION":3,
						"NORMAL":4,
						"TEXCOORD_0":5
					},
					"indices":6,
					"material":0
				}
			]
		},
		{
			"name":"Circle",
			"primitives":[
				{
					"attributes":{
						"POSITION":7,
						"NORMAL":8,
						"TEXCOORD_0":9
					},
					"indices":10,
					"material":1
				},
				{
					"attributes":{
						"POSITION":11,
						"NORMAL":12,
						"TEXCOORD_0":13
					},
					"indices":14,
					"material":2
				},
				{
					"attributes":{
						"POSITION":15,
						"NORMAL":16,
						"TEXCOORD_0":17
					},
					"indices":18,
					"material":3
				}
			]
		},
		{
			"name":"_(Loose Entity).004",
			"primitives":[
				{
					"attributes":{
						"POSITION":19,
						"NORMAL":20,
						"TEXCOORD_0":21
					},
					"indices":22,
					"material":4
				}
			]
		},
		{
			"name":"G-Object.002",
			"primitives":[
				{
					"attributes":{
						"POSITION":23,
						"NORMAL":24,
						"TEXCOORD_0":25
					},
					"indices":26,
					"material":5
				}
			]
		},
		{
			"name":"G-Object.019",
			"primitives":[
				{
					"attributes":{
						"POSITION":27,
						"NORMAL":28,
						"TEXCOORD_0":29
					},
					"indices":26,
					"material":6
				}
			]
		},
		{
			"name":"G-Object.013",
			"primitives":[
				{
					"attributes":{
						"POSITION":30,
						"NORMAL":31,
						"TEXCOORD_0":32
					},
					"indices":26,
					"material":7
				}
			]
		},
		{
			"name":"G-Object.015",
			"primitives":[
				{
					"attributes":{
						"POSITION":33,
						"NORMAL":34,
						"TEXCOORD_0":35
					},
					"indices":26,
					"material":8
				}
			]
		},
		{
			"name":"G-Object.004",
			"primitives":[
				{
					"attributes":{
						"POSITION":36,
						"NORMAL":37,
						"TEXCOORD_0":38
					},
					"indices":26,
					"material":9
				}
			]
		},
		{
			"name":"G-Object.017",
			"primitives":[
				{
					"attributes":{
						"POSITION":39,
						"NORMAL":40,
						"TEXCOORD_0":41
					},
					"indices":26,
					"material":10
				}
			]
		},
		{
			"name":"G-Object.020",
			"primitives":[
				{
					"attributes":{
						"POSITION":42,
						"NORMAL":43,
						"TEXCOORD_0":44
					},
					"indices":26,
					"material":11
				}
			]
		},
		{
			"name":"G-Object.021",
			"primitives":[
				{
					"attributes":{
						"POSITION":45,
						"NORMAL":46,
						"TEXCOORD_0":47
					},
					"indices":26,
					"material":12
				}
			]
		},
		{
			"name":"G-Object.024",
			"primitives":[
				{
					"attributes":{
						"POSITION":48,
						"NORMAL":49,
						"TEXCOORD_0":50
					},
					"indices":26,
					"material":13
				}
			]
		},
		{
			"name":"G-Object.005",
			"primitives":[
				{
					"attributes":{
						"POSITION":51,
						"NORMAL":52,
						"TEXCOORD_0":53
					},
					"indices":54,
					"material":14
				}
			]
		},
		{
			"name":"G-Object.018",
			"primitives":[
				{
					"attributes":{
						"POSITION":55,
						"NORMAL":56,
						"TEXCOORD_0":57
					},
					"indices":26,
					"material":15
				}
			]
		},
		{
			"name":"G-Object.010",
			"primitives":[
				{
					"attributes":{
						"POSITION":58,
						"NORMAL":59,
						"TEXCOORD_0":60
					},
					"indices":26,
					"material":16
				}
			]
		},
		{
			"name":"G-Object.025",
			"primitives":[
				{
					"attributes":{
						"POSITION":61,
						"NORMAL":62,
						"TEXCOORD_0":63
					},
					"indices":26,
					"material":17
				}
			]
		},
		{
			"name":"G-Object.026",
			"primitives":[
				{
					"attributes":{
						"POSITION":64,
						"NORMAL":65,
						"TEXCOORD_0":66
					},
					"indices":26,
					"material":18
				}
			]
		},
		{
			"name":"G-Object.027",
			"primitives":[
				{
					"attributes":{
						"POSITION":67,
						"NORMAL":68,
						"TEXCOORD_0":69
					},
					"indices":26,
					"material":19
				}
			]
		},
		{
			"name":"G-Object.028",
			"primitives":[
				{
					"attributes":{
						"POSITION":70,
						"NORMAL":71,
						"TEXCOORD_0":72
					},
					"indices":26,
					"material":20
				}
			]
		},
		{
			"name":"G-Object.029",
			"primitives":[
				{
					"attributes":{
						"POSITION":73,
						"NORMAL":74,
						"TEXCOORD_0":75
					},
					"indices":26,
					"material":21
				}
			]
		},
		{
			"name":"G-Object.009",
			"primitives":[
				{
					"attributes":{
						"POSITION":76,
						"NORMAL":77,
						"TEXCOORD_0":78
					},
					"indices":26,
					"material":22
				}
			]
		},
		{
			"name":"G-Object.006",
			"primitives":[
				{
					"attributes":{
						"POSITION":79,
						"NORMAL":80,
						"TEXCOORD_0":81
					},
					"indices":82,
					"material":23
				}
			]
		},
		{
			"name":"Plane.001",
			"primitives":[
				{
					"attributes":{
						"POSITION":83,
						"NORMAL":84,
						"TEXCOORD_0":85
					},
					"indices":86,
					"material":24
				}
			]
		},
		{
			"name":"Plane.004",
			"primitives":[
				{
					"attributes":{
						"POSITION":87,
						"NORMAL":88,
						"TEXCOORD_0":89
					},
					"indices":86,
					"material":25
				}
			]
		},
		{
			"name":"Plane.005",
			"primitives":[
				{
					"attributes":{
						"POSITION":90,
						"NORMAL":91,
						"TEXCOORD_0":92
					},
					"indices":86,
					"material":26
				}
			]
		},
		{
			"name":"Plane.006",
			"primitives":[
				{
					"attributes":{
						"POSITION":93,
						"NORMAL":94,
						"TEXCOORD_0":95
					},
					"indices":86,
					"material":27
				}
			]
		},
		{
			"name":"Plane.007",
			"primitives":[
				{
					"attributes":{
						"POSITION":96,
						"NORMAL":97,
						"TEXCOORD_0":98
					},
					"indices":86,
					"material":28
				}
			]
		},
		{
			"name":"Plane.008",
			"primitives":[
				{
					"attributes":{
						"POSITION":99,
						"NORMAL":100,
						"TEXCOORD_0":101
					},
					"indices":86,
					"material":27
				}
			]
		},
		{
			"name":"Plane.009",
			"primitives":[
				{
					"attributes":{
						"POSITION":102,
						"NORMAL":103,
						"TEXCOORD_0":104
					},
					"indices":86,
					"material":29
				}
			]
		},
		{
			"name":"Plane.010",
			"primitives":[
				{
					"attributes":{
						"POSITION":105,
						"NORMAL":106,
						"TEXCOORD_0":107
					},
					"indices":86,
					"material":30
				}
			]
		},
		{
			"name":"Plane.011",
			"primitives":[
				{
					"attributes":{
						"POSITION":108,
						"NORMAL":109,
						"TEXCOORD_0":110
					},
					"indices":86,
					"material":31
				}
			]
		},
		{
			"name":"Plane.012",
			"primitives":[
				{
					"attributes":{
						"POSITION":111,
						"NORMAL":112,
						"TEXCOORD_0":113
					},
					"indices":86,
					"material":32
				}
			]
		},
		{
			"name":"Plane.013",
			"primitives":[
				{
					"attributes":{
						"POSITION":114,
						"NORMAL":115,
						"TEXCOORD_0":116
					},
					"indices":86,
					"material":27
				}
			]
		},
		{
			"name":"Plane.014",
			"primitives":[
				{
					"attributes":{
						"POSITION":117,
						"NORMAL":118,
						"TEXCOORD_0":119
					},
					"indices":86,
					"material":33
				}
			]
		},
		{
			"name":"Plane.015",
			"primitives":[
				{
					"attributes":{
						"POSITION":120,
						"NORMAL":121,
						"TEXCOORD_0":122
					},
					"indices":86,
					"material":34
				}
			]
		},
		{
			"name":"Plane.016",
			"primitives":[
				{
					"attributes":{
						"POSITION":123,
						"NORMAL":124,
						"TEXCOORD_0":125
					},
					"indices":86,
					"material":27
				}
			]
		},
		{
			"name":"Plane.017",
			"primitives":[
				{
					"attributes":{
						"POSITION":126,
						"NORMAL":127,
						"TEXCOORD_0":128
					},
					"indices":86,
					"material":27
				}
			]
		},
		{
			"name":"Plane.018",
			"primitives":[
				{
					"attributes":{
						"POSITION":129,
						"NORMAL":130,
						"TEXCOORD_0":131
					},
					"indices":86,
					"material":35
				}
			]
		},
		{
			"name":"Plane.019",
			"primitives":[
				{
					"attributes":{
						"POSITION":132,
						"NORMAL":133,
						"TEXCOORD_0":134
					},
					"indices":86,
					"material":27
				}
			]
		}
	],
	"textures":[
		{
			"sampler":0,
			"source":0
		},
		{
			"sampler":0,
			"source":1
		},
		{
			"sampler":0,
			"source":1
		},
		{
			"sampler":0,
			"source":1
		},
		{
			"sampler":0,
			"source":2
		},
		{
			"sampler":0,
			"source":3
		},
		{
			"sampler":0,
			"source":4
		},
		{
			"sampler":0,
			"source":5
		},
		{
			"sampler":0,
			"source":6
		},
		{
			"sampler":0,
			"source":7
		},
		{
			"sampler":0,
			"source":8
		},
		{
			"sampler":0,
			"source":9
		},
		{
			"sampler":0,
			"source":10
		},
		{
			"sampler":0,
			"source":11
		},
		{
			"sampler":0,
			"source":12
		},
		{
			"sampler":0,
			"source":13
		},
		{
			"sampler":0,
			"source":14
		},
		{
			"sampler":0,
			"source":15
		},
		{
			"sampler":0,
			"source":16
		},
		{
			"sampler":0,
			"source":17
		},
		{
			"sampler":0,
			"source":18
		},
		{
			"sampler":0,
			"source":19
		},
		{
			"sampler":0,
			"source":20
		},
		{
			"sampler":0,
			"source":21
		},
		{
			"sampler":0,
			"source":22
		},
		{
			"sampler":0,
			"source":23
		},
		{
			"sampler":0,
			"source":24
		},
		{
			"sampler":0,
			"source":25
		},
		{
			"sampler":0,
			"source":26
		},
		{
			"sampler":0,
			"source":27
		},
		{
			"sampler":0,
			"source":25
		},
		{
			"sampler":0,
			"source":28
		},
		{
			"sampler":0,
			"source":25
		},
		{
			"sampler":0,
			"source":29
		},
		{
			"sampler":0,
			"source":30
		},
		{
			"sampler":0,
			"source":31
		}
	],
	"images":[
		{
			"mimeType":"image/png",
			"name":"BakeFloor",
			"uri":"BakeFloor.png"
		},
		{
			"mimeType":"image/png",
			"name":"BakeCeiling",
			"uri":"BakeCeiling.png"
		},
		{
			"mimeType":"image/png",
			"name":"BakeWall",
			"uri":"BakeWall.png"
		},
		{
			"mimeType":"image/jpeg",
			"name":"000588004013",
			"uri":"000588004013.jpg"
		},
		{
			"mimeType":"image/jpeg",
			"name":"000588001013",
			"uri":"000588001013.jpg"
		},
		{
			"mimeType":"image/jpeg",
			"name":"000588005013",
			"uri":"000588005013.jpg"
		},
		{
			"mimeType":"image/jpeg",
			"name":"000588003013",
			"uri":"000588003013.jpg"
		},
		{
			"mimeType":"image/jpeg",
			"name":"sao francisco",
			"uri":"sao%20francisco.jpg"
		},
		{
			"mimeType":"image/jpeg",
			"name":"pipoqueiro",
			"uri":"pipoqueiro.jpg"
		},
		{
			"mimeType":"image/jpeg",
			"name":"dulcineia",
			"uri":"dulcineia.jpg"
		},
		{
			"mimeType":"image/jpeg",
			"name":"2",
			"uri":"2.jpg"
		},
		{
			"mimeType":"image/jpeg",
			"name":"17",
			"uri":"17.jpg"
		},
		{
			"mimeType":"image/png",
			"name":"Spots",
			"uri":"Spots.png"
		},
		{
			"mimeType":"image/jpeg",
			"name":"d",
			"uri":"d.jpg"
		},
		{
			"mimeType":"image/jpeg",
			"name":"000588002013",
			"uri":"000588002013.jpg"
		},
		{
			"mimeType":"image/jpeg",
			"name":"8",
			"uri":"8.jpg"
		},
		{
			"mimeType":"image/jpeg",
			"name":"7",
			"uri":"7.jpg"
		},
		{
			"mimeType":"image/jpeg",
			"name":"6",
			"uri":"6.jpg"
		},
		{
			"mimeType":"image/jpeg",
			"name":"5",
			"uri":"5.jpg"
		},
		{
			"mimeType":"image/jpeg",
			"name":"3",
			"uri":"3.jpg"
		},
		{
			"mimeType":"image/jpeg",
			"name":"4",
			"uri":"4.jpg"
		},
		{
			"mimeType":"image/jpeg",
			"name":"brown-wood-textured-background-with-design-space",
			"uri":"brown-wood-textured-background-with-design-space.jpg"
		},
		{
			"mimeType":"image/png",
			"name":"Painel 4",
			"uri":"Painel%204.png"
		},
		{
			"mimeType":"image/png",
			"name":"Painel 6",
			"uri":"Painel%206.png"
		},
		{
			"mimeType":"image/png",
			"name":"Painel 7",
			"uri":"Painel%207.png"
		},
		{
			"mimeType":"image/png",
			"name":"Painel 10",
			"uri":"Painel%2010.png"
		},
		{
			"mimeType":"image/png",
			"name":"Painel 3",
			"uri":"Painel%203.png"
		},
		{
			"mimeType":"image/png",
			"name":"Painel 5",
			"uri":"Painel%205.png"
		},
		{
			"mimeType":"image/png",
			"name":"Painel 9",
			"uri":"Painel%209.png"
		},
		{
			"mimeType":"image/png",
			"name":"Painel 1",
			"uri":"Painel%201.png"
		},
		{
			"mimeType":"image/png",
			"name":"Painel 2",
			"uri":"Painel%202.png"
		},
		{
			"mimeType":"image/png",
			"name":"Painel 8",
			"uri":"Painel%208.png"
		}
	],
	"accessors":[
		{
			"bufferView":0,
			"componentType":5126,
			"count":4,
			"max":[
				9.620540618896484,
				8.21969985961914,
				-2.506516218185425
			],
			"min":[
				9.53363037109375,
				8.206310272216797,
				-2.5927584171295166
			],
			"type":"VEC3"
		},
		{
			"bufferView":1,
			"componentType":5126,
			"count":4,
			"type":"VEC3"
		},
		{
			"bufferView":2,
			"componentType":5123,
			"count":6,
			"type":"SCALAR"
		},
		{
			"bufferView":3,
			"componentType":5126,
			"count":381,
			"max":[
				402.6404724121094,
				2.5399999618530273,
				-3.809999942779541
			],
			"min":[
				3.809999942779541,
				0,
				-504.19000244140625
			],
			"type":"VEC3"
		},
		{
			"bufferView":4,
			"componentType":5126,
			"count":381,
			"type":"VEC3"
		},
		{
			"bufferView":5,
			"componentType":5126,
			"count":381,
			"type":"VEC2"
		},
		{
			"bufferView":6,
			"componentType":5123,
			"count":423,
			"type":"SCALAR"
		},
		{
			"bufferView":7,
			"componentType":5126,
			"count":534,
			"max":[
				6.106988906860352,
				0.0003727283328771591,
				0.9975640773773193
			],
			"min":[
				-0.9993908405303955,
				-0.019235942512750626,
				-7.252078056335449
			],
			"type":"VEC3"
		},
		{
			"bufferView":8,
			"componentType":5126,
			"count":534,
			"type":"VEC3"
		},
		{
			"bufferView":9,
			"componentType":5126,
			"count":534,
			"type":"VEC2"
		},
		{
			"bufferView":10,
			"componentType":5123,
			"count":810,
			"type":"SCALAR"
		},
		{
			"bufferView":11,
			"componentType":5126,
			"count":2075,
			"max":[
				6.126821517944336,
				0.016209160909056664,
				1.0173841714859009
			],
			"min":[
				-1.0192230939865112,
				-0.16461296379566193,
				-7.27189826965332
			],
			"type":"VEC3"
		},
		{
			"bufferView":12,
			"componentType":5126,
			"count":2075,
			"type":"VEC3"
		},
		{
			"bufferView":13,
			"componentType":5126,
			"count":2075,
			"type":"VEC2"
		},
		{
			"bufferView":14,
			"componentType":5123,
			"count":4860,
			"type":"SCALAR"
		},
		{
			"bufferView":15,
			"componentType":5126,
			"count":129,
			"max":[
				7.515235900878906,
				-0.07432770729064941,
				3.3264808654785156
			],
			"min":[
				-2.4626739025115967,
				-0.1378772258758545,
				-9.191987037658691
			],
			"type":"VEC3"
		},
		{
			"bufferView":16,
			"componentType":5126,
			"count":129,
			"type":"VEC3"
		},
		{
			"bufferView":17,
			"componentType":5126,
			"count":129,
			"type":"VEC2"
		},
		{
			"bufferView":18,
			"componentType":5123,
			"count":270,
			"type":"SCALAR"
		},
		{
			"bufferView":19,
			"componentType":5126,
			"count":108,
			"max":[
				406.3999938964844,
				88.9000015258789,
				0
			],
			"min":[
				0,
				0,
				-508
			],
			"type":"VEC3"
		},
		{
			"bufferView":20,
			"componentType":5126,
			"count":108,
			"type":"VEC3"
		},
		{
			"bufferView":21,
			"componentType":5126,
			"count":108,
			"type":"VEC2"
		},
		{
			"bufferView":22,
			"componentType":5123,
			"count":165,
			"type":"SCALAR"
		},
		{
			"bufferView":23,
			"componentType":5126,
			"count":4,
			"max":[
				0.36600297689437866,
				-0.19936275482177734,
				0.13171815872192383
			],
			"min":[
				0.2697638273239136,
				-0.6521048545837402,
				-0.19201993942260742
			],
			"type":"VEC3"
		},
		{
			"bufferView":24,
			"componentType":5126,
			"count":4,
			"type":"VEC3"
		},
		{
			"bufferView":25,
			"componentType":5126,
			"count":4,
			"type":"VEC2"
		},
		{
			"bufferView":26,
			"componentType":5123,
			"count":6,
			"type":"SCALAR"
		},
		{
			"bufferView":27,
			"componentType":5126,
			"count":4,
			"max":[
				0.36600297689437866,
				-0.19936275482177734,
				0.13171815872192383
			],
			"min":[
				0.2697638273239136,
				-0.6521048545837402,
				-0.19201993942260742
			],
			"type":"VEC3"
		},
		{
			"bufferView":28,
			"componentType":5126,
			"count":4,
			"type":"VEC3"
		},
		{
			"bufferView":29,
			"componentType":5126,
			"count":4,
			"type":"VEC2"
		},
		{
			"bufferView":30,
			"componentType":5126,
			"count":4,
			"max":[
				0.36600297689437866,
				-0.19936275482177734,
				0.13171815872192383
			],
			"min":[
				0.2697638273239136,
				-0.6521048545837402,
				-0.19201993942260742
			],
			"type":"VEC3"
		},
		{
			"bufferView":31,
			"componentType":5126,
			"count":4,
			"type":"VEC3"
		},
		{
			"bufferView":32,
			"componentType":5126,
			"count":4,
			"type":"VEC2"
		},
		{
			"bufferView":33,
			"componentType":5126,
			"count":4,
			"max":[
				0.5741492509841919,
				-0.1591193825006485,
				0.7373962998390198
			],
			"min":[
				0.19147345423698425,
				-0.6514042615890503,
				0.7027453184127808
			],
			"type":"VEC3"
		},
		{
			"bufferView":34,
			"componentType":5126,
			"count":4,
			"type":"VEC3"
		},
		{
			"bufferView":35,
			"componentType":5126,
			"count":4,
			"type":"VEC2"
		},
		{
			"bufferView":36,
			"componentType":5126,
			"count":4,
			"max":[
				0.36600297689437866,
				-0.19936275482177734,
				0.13171815872192383
			],
			"min":[
				0.2697638273239136,
				-0.6521048545837402,
				-0.19201993942260742
			],
			"type":"VEC3"
		},
		{
			"bufferView":37,
			"componentType":5126,
			"count":4,
			"type":"VEC3"
		},
		{
			"bufferView":38,
			"componentType":5126,
			"count":4,
			"type":"VEC2"
		},
		{
			"bufferView":39,
			"componentType":5126,
			"count":4,
			"max":[
				0.36164334416389465,
				-0.2620820701122284,
				0.1958223283290863
			],
			"min":[
				0.27412357926368713,
				-0.5893864631652832,
				-0.2561245262622833
			],
			"type":"VEC3"
		},
		{
			"bufferView":40,
			"componentType":5126,
			"count":4,
			"type":"VEC3"
		},
		{
			"bufferView":41,
			"componentType":5126,
			"count":4,
			"type":"VEC2"
		},
		{
			"bufferView":42,
			"componentType":5126,
			"count":4,
			"max":[
				0.36600297689437866,
				-0.19936275482177734,
				0.13171815872192383
			],
			"min":[
				0.2697638273239136,
				-0.6521048545837402,
				-0.19201993942260742
			],
			"type":"VEC3"
		},
		{
			"bufferView":43,
			"componentType":5126,
			"count":4,
			"type":"VEC3"
		},
		{
			"bufferView":44,
			"componentType":5126,
			"count":4,
			"type":"VEC2"
		},
		{
			"bufferView":45,
			"componentType":5126,
			"count":4,
			"max":[
				0.35670509934425354,
				-0.2939757704734802,
				0.19537921249866486
			],
			"min":[
				0.27906155586242676,
				-0.5574913024902344,
				-0.2556816339492798
			],
			"type":"VEC3"
		},
		{
			"bufferView":46,
			"componentType":5126,
			"count":4,
			"type":"VEC3"
		},
		{
			"bufferView":47,
			"componentType":5126,
			"count":4,
			"type":"VEC2"
		},
		{
			"bufferView":48,
			"componentType":5126,
			"count":4,
			"max":[
				0.36600297689437866,
				-0.19936275482177734,
				0.13171815872192383
			],
			"min":[
				0.2697638273239136,
				-0.6521048545837402,
				-0.19201993942260742
			],
			"type":"VEC3"
		},
		{
			"bufferView":49,
			"componentType":5126,
			"count":4,
			"type":"VEC3"
		},
		{
			"bufferView":50,
			"componentType":5126,
			"count":4,
			"type":"VEC2"
		},
		{
			"bufferView":51,
			"componentType":5126,
			"count":46732,
			"max":[
				3.1682534217834473,
				0.5439251065254211,
				1.694699764251709
			],
			"min":[
				-2.5055155754089355,
				-0.44988203048706055,
				-3.165825366973877
			],
			"type":"VEC3"
		},
		{
			"bufferView":52,
			"componentType":5126,
			"count":46732,
			"type":"VEC3"
		},
		{
			"bufferView":53,
			"componentType":5126,
			"count":46732,
			"type":"VEC2"
		},
		{
			"bufferView":54,
			"componentType":5123,
			"count":242148,
			"type":"SCALAR"
		},
		{
			"bufferView":55,
			"componentType":5126,
			"count":4,
			"max":[
				0.36600297689437866,
				-0.19936275482177734,
				0.13171815872192383
			],
			"min":[
				0.2697638273239136,
				-0.6521048545837402,
				-0.19201993942260742
			],
			"type":"VEC3"
		},
		{
			"bufferView":56,
			"componentType":5126,
			"count":4,
			"type":"VEC3"
		},
		{
			"bufferView":57,
			"componentType":5126,
			"count":4,
			"type":"VEC2"
		},
		{
			"bufferView":58,
			"componentType":5126,
			"count":4,
			"max":[
				0.36600297689437866,
				-0.19936275482177734,
				0.13171815872192383
			],
			"min":[
				0.2697638273239136,
				-0.6521048545837402,
				-0.19201993942260742
			],
			"type":"VEC3"
		},
		{
			"bufferView":59,
			"componentType":5126,
			"count":4,
			"type":"VEC3"
		},
		{
			"bufferView":60,
			"componentType":5126,
			"count":4,
			"type":"VEC2"
		},
		{
			"bufferView":61,
			"componentType":5126,
			"count":4,
			"max":[
				0.35822832584381104,
				-0.2495775818824768,
				0.13102075457572937
			],
			"min":[
				0.2775384783744812,
				-0.601889967918396,
				-0.19132253527641296
			],
			"type":"VEC3"
		},
		{
			"bufferView":62,
			"componentType":5126,
			"count":4,
			"type":"VEC3"
		},
		{
			"bufferView":63,
			"componentType":5126,
			"count":4,
			"type":"VEC2"
		},
		{
			"bufferView":64,
			"componentType":5126,
			"count":4,
			"max":[
				0.35822832584381104,
				-0.2495775818824768,
				0.13102075457572937
			],
			"min":[
				0.2775384783744812,
				-0.601889967918396,
				-0.19132253527641296
			],
			"type":"VEC3"
		},
		{
			"bufferView":65,
			"componentType":5126,
			"count":4,
			"type":"VEC3"
		},
		{
			"bufferView":66,
			"componentType":5126,
			"count":4,
			"type":"VEC2"
		},
		{
			"bufferView":67,
			"componentType":5126,
			"count":4,
			"max":[
				0.35822832584381104,
				-0.2495775818824768,
				0.13102075457572937
			],
			"min":[
				0.2775384783744812,
				-0.601889967918396,
				-0.19132253527641296
			],
			"type":"VEC3"
		},
		{
			"bufferView":68,
			"componentType":5126,
			"count":4,
			"type":"VEC3"
		},
		{
			"bufferView":69,
			"componentType":5126,
			"count":4,
			"type":"VEC2"
		},
		{
			"bufferView":70,
			"componentType":5126,
			"count":4,
			"max":[
				0.35822832584381104,
				-0.2495775818824768,
				0.13102075457572937
			],
			"min":[
				0.2775384783744812,
				-0.601889967918396,
				-0.19132253527641296
			],
			"type":"VEC3"
		},
		{
			"bufferView":71,
			"componentType":5126,
			"count":4,
			"type":"VEC3"
		},
		{
			"bufferView":72,
			"componentType":5126,
			"count":4,
			"type":"VEC2"
		},
		{
			"bufferView":73,
			"componentType":5126,
			"count":4,
			"max":[
				0.35822832584381104,
				-0.2495775818824768,
				0.13102075457572937
			],
			"min":[
				0.2775384783744812,
				-0.601889967918396,
				-0.19132253527641296
			],
			"type":"VEC3"
		},
		{
			"bufferView":74,
			"componentType":5126,
			"count":4,
			"type":"VEC3"
		},
		{
			"bufferView":75,
			"componentType":5126,
			"count":4,
			"type":"VEC2"
		},
		{
			"bufferView":76,
			"componentType":5126,
			"count":4,
			"max":[
				0.35822832584381104,
				-0.2495775818824768,
				0.13102075457572937
			],
			"min":[
				0.2775384783744812,
				-0.601889967918396,
				-0.19132253527641296
			],
			"type":"VEC3"
		},
		{
			"bufferView":77,
			"componentType":5126,
			"count":4,
			"type":"VEC3"
		},
		{
			"bufferView":78,
			"componentType":5126,
			"count":4,
			"type":"VEC2"
		},
		{
			"bufferView":79,
			"componentType":5126,
			"count":1465,
			"max":[
				3.5210232734680176,
				0.30626165866851807,
				1.9566621780395508
			],
			"min":[
				-2.7239644527435303,
				-1.1151374578475952,
				-3.41420578956604
			],
			"type":"VEC3"
		},
		{
			"bufferView":80,
			"componentType":5126,
			"count":1465,
			"type":"VEC3"
		},
		{
			"bufferView":81,
			"componentType":5126,
			"count":1465,
			"type":"VEC2"
		},
		{
			"bufferView":82,
			"componentType":5123,
			"count":2448,
			"type":"SCALAR"
		},
		{
			"bufferView":83,
			"componentType":5126,
			"count":4,
			"max":[
				1,
				0,
				1
			],
			"min":[
				-1,
				0,
				-1
			],
			"type":"VEC3"
		},
		{
			"bufferView":84,
			"componentType":5126,
			"count":4,
			"type":"VEC3"
		},
		{
			"bufferView":85,
			"componentType":5126,
			"count":4,
			"type":"VEC2"
		},
		{
			"bufferView":86,
			"componentType":5123,
			"count":6,
			"type":"SCALAR"
		},
		{
			"bufferView":87,
			"componentType":5126,
			"count":4,
			"max":[
				1,
				0,
				1
			],
			"min":[
				-1,
				0,
				-1
			],
			"type":"VEC3"
		},
		{
			"bufferView":88,
			"componentType":5126,
			"count":4,
			"type":"VEC3"
		},
		{
			"bufferView":89,
			"componentType":5126,
			"count":4,
			"type":"VEC2"
		},
		{
			"bufferView":90,
			"componentType":5126,
			"count":4,
			"max":[
				1,
				0,
				1
			],
			"min":[
				-1,
				0,
				-1
			],
			"type":"VEC3"
		},
		{
			"bufferView":91,
			"componentType":5126,
			"count":4,
			"type":"VEC3"
		},
		{
			"bufferView":92,
			"componentType":5126,
			"count":4,
			"type":"VEC2"
		},
		{
			"bufferView":93,
			"componentType":5126,
			"count":4,
			"max":[
				1,
				0,
				1
			],
			"min":[
				-1,
				0,
				-1
			],
			"type":"VEC3"
		},
		{
			"bufferView":94,
			"componentType":5126,
			"count":4,
			"type":"VEC3"
		},
		{
			"bufferView":95,
			"componentType":5126,
			"count":4,
			"type":"VEC2"
		},
		{
			"bufferView":96,
			"componentType":5126,
			"count":4,
			"max":[
				1,
				0,
				1
			],
			"min":[
				-1,
				0,
				-1
			],
			"type":"VEC3"
		},
		{
			"bufferView":97,
			"componentType":5126,
			"count":4,
			"type":"VEC3"
		},
		{
			"bufferView":98,
			"componentType":5126,
			"count":4,
			"type":"VEC2"
		},
		{
			"bufferView":99,
			"componentType":5126,
			"count":4,
			"max":[
				1,
				0,
				1
			],
			"min":[
				-1,
				0,
				-1
			],
			"type":"VEC3"
		},
		{
			"bufferView":100,
			"componentType":5126,
			"count":4,
			"type":"VEC3"
		},
		{
			"bufferView":101,
			"componentType":5126,
			"count":4,
			"type":"VEC2"
		},
		{
			"bufferView":102,
			"componentType":5126,
			"count":4,
			"max":[
				1,
				0,
				1
			],
			"min":[
				-1,
				0,
				-1
			],
			"type":"VEC3"
		},
		{
			"bufferView":103,
			"componentType":5126,
			"count":4,
			"type":"VEC3"
		},
		{
			"bufferView":104,
			"componentType":5126,
			"count":4,
			"type":"VEC2"
		},
		{
			"bufferView":105,
			"componentType":5126,
			"count":4,
			"max":[
				1,
				0,
				1
			],
			"min":[
				-1,
				0,
				-1
			],
			"type":"VEC3"
		},
		{
			"bufferView":106,
			"componentType":5126,
			"count":4,
			"type":"VEC3"
		},
		{
			"bufferView":107,
			"componentType":5126,
			"count":4,
			"type":"VEC2"
		},
		{
			"bufferView":108,
			"componentType":5126,
			"count":4,
			"max":[
				1,
				0,
				1
			],
			"min":[
				-1,
				0,
				-1
			],
			"type":"VEC3"
		},
		{
			"bufferView":109,
			"componentType":5126,
			"count":4,
			"type":"VEC3"
		},
		{
			"bufferView":110,
			"componentType":5126,
			"count":4,
			"type":"VEC2"
		},
		{
			"bufferView":111,
			"componentType":5126,
			"count":4,
			"max":[
				1,
				0,
				1
			],
			"min":[
				-1,
				0,
				-1
			],
			"type":"VEC3"
		},
		{
			"bufferView":112,
			"componentType":5126,
			"count":4,
			"type":"VEC3"
		},
		{
			"bufferView":113,
			"componentType":5126,
			"count":4,
			"type":"VEC2"
		},
		{
			"bufferView":114,
			"componentType":5126,
			"count":4,
			"max":[
				1,
				0,
				1
			],
			"min":[
				-1,
				0,
				-1
			],
			"type":"VEC3"
		},
		{
			"bufferView":115,
			"componentType":5126,
			"count":4,
			"type":"VEC3"
		},
		{
			"bufferView":116,
			"componentType":5126,
			"count":4,
			"type":"VEC2"
		},
		{
			"bufferView":117,
			"componentType":5126,
			"count":4,
			"max":[
				1,
				0,
				1
			],
			"min":[
				-1,
				0,
				-1
			],
			"type":"VEC3"
		},
		{
			"bufferView":118,
			"componentType":5126,
			"count":4,
			"type":"VEC3"
		},
		{
			"bufferView":119,
			"componentType":5126,
			"count":4,
			"type":"VEC2"
		},
		{
			"bufferView":120,
			"componentType":5126,
			"count":4,
			"max":[
				1,
				0,
				1
			],
			"min":[
				-1,
				0,
				-1
			],
			"type":"VEC3"
		},
		{
			"bufferView":121,
			"componentType":5126,
			"count":4,
			"type":"VEC3"
		},
		{
			"bufferView":122,
			"componentType":5126,
			"count":4,
			"type":"VEC2"
		},
		{
			"bufferView":123,
			"componentType":5126,
			"count":4,
			"max":[
				1,
				0,
				1
			],
			"min":[
				-1,
				0,
				-1
			],
			"type":"VEC3"
		},
		{
			"bufferView":124,
			"componentType":5126,
			"count":4,
			"type":"VEC3"
		},
		{
			"bufferView":125,
			"componentType":5126,
			"count":4,
			"type":"VEC2"
		},
		{
			"bufferView":126,
			"componentType":5126,
			"count":4,
			"max":[
				1,
				0,
				1
			],
			"min":[
				-1,
				0,
				-1
			],
			"type":"VEC3"
		},
		{
			"bufferView":127,
			"componentType":5126,
			"count":4,
			"type":"VEC3"
		},
		{
			"bufferView":128,
			"componentType":5126,
			"count":4,
			"type":"VEC2"
		},
		{
			"bufferView":129,
			"componentType":5126,
			"count":4,
			"max":[
				1,
				0,
				1
			],
			"min":[
				-1,
				0,
				-1
			],
			"type":"VEC3"
		},
		{
			"bufferView":130,
			"componentType":5126,
			"count":4,
			"type":"VEC3"
		},
		{
			"bufferView":131,
			"componentType":5126,
			"count":4,
			"type":"VEC2"
		},
		{
			"bufferView":132,
			"componentType":5126,
			"count":4,
			"max":[
				1,
				0,
				1
			],
			"min":[
				-1,
				0,
				-1
			],
			"type":"VEC3"
		},
		{
			"bufferView":133,
			"componentType":5126,
			"count":4,
			"type":"VEC3"
		},
		{
			"bufferView":134,
			"componentType":5126,
			"count":4,
			"type":"VEC2"
		}
	],
	"bufferViews":[
		{
			"buffer":0,
			"byteLength":48,
			"byteOffset":0,
			"target":34962
		},
		{
			"buffer":0,
			"byteLength":48,
			"byteOffset":48,
			"target":34962
		},
		{
			"buffer":0,
			"byteLength":12,
			"byteOffset":96,
			"target":34963
		},
		{
			"buffer":0,
			"byteLength":4572,
			"byteOffset":108,
			"target":34962
		},
		{
			"buffer":0,
			"byteLength":4572,
			"byteOffset":4680,
			"target":34962
		},
		{
			"buffer":0,
			"byteLength":3048,
			"byteOffset":9252,
			"target":34962
		},
		{
			"buffer":0,
			"byteLength":846,
			"byteOffset":12300,
			"target":34963
		},
		{
			"buffer":0,
			"byteLength":6408,
			"byteOffset":13148,
			"target":34962
		},
		{
			"buffer":0,
			"byteLength":6408,
			"byteOffset":19556,
			"target":34962
		},
		{
			"buffer":0,
			"byteLength":4272,
			"byteOffset":25964,
			"target":34962
		},
		{
			"buffer":0,
			"byteLength":1620,
			"byteOffset":30236,
			"target":34963
		},
		{
			"buffer":0,
			"byteLength":24900,
			"byteOffset":31856,
			"target":34962
		},
		{
			"buffer":0,
			"byteLength":24900,
			"byteOffset":56756,
			"target":34962
		},
		{
			"buffer":0,
			"byteLength":16600,
			"byteOffset":81656,
			"target":34962
		},
		{
			"buffer":0,
			"byteLength":9720,
			"byteOffset":98256,
			"target":34963
		},
		{
			"buffer":0,
			"byteLength":1548,
			"byteOffset":107976,
			"target":34962
		},
		{
			"buffer":0,
			"byteLength":1548,
			"byteOffset":109524,
			"target":34962
		},
		{
			"buffer":0,
			"byteLength":1032,
			"byteOffset":111072,
			"target":34962
		},
		{
			"buffer":0,
			"byteLength":540,
			"byteOffset":112104,
			"target":34963
		},
		{
			"buffer":0,
			"byteLength":1296,
			"byteOffset":112644,
			"target":34962
		},
		{
			"buffer":0,
			"byteLength":1296,
			"byteOffset":113940,
			"target":34962
		},
		{
			"buffer":0,
			"byteLength":864,
			"byteOffset":115236,
			"target":34962
		},
		{
			"buffer":0,
			"byteLength":330,
			"byteOffset":116100,
			"target":34963
		},
		{
			"buffer":0,
			"byteLength":48,
			"byteOffset":116432,
			"target":34962
		},
		{
			"buffer":0,
			"byteLength":48,
			"byteOffset":116480,
			"target":34962
		},
		{
			"buffer":0,
			"byteLength":32,
			"byteOffset":116528,
			"target":34962
		},
		{
			"buffer":0,
			"byteLength":12,
			"byteOffset":116560,
			"target":34963
		},
		{
			"buffer":0,
			"byteLength":48,
			"byteOffset":116572,
			"target":34962
		},
		{
			"buffer":0,
			"byteLength":48,
			"byteOffset":116620,
			"target":34962
		},
		{
			"buffer":0,
			"byteLength":32,
			"byteOffset":116668,
			"target":34962
		},
		{
			"buffer":0,
			"byteLength":48,
			"byteOffset":116700,
			"target":34962
		},
		{
			"buffer":0,
			"byteLength":48,
			"byteOffset":116748,
			"target":34962
		},
		{
			"buffer":0,
			"byteLength":32,
			"byteOffset":116796,
			"target":34962
		},
		{
			"buffer":0,
			"byteLength":48,
			"byteOffset":116828,
			"target":34962
		},
		{
			"buffer":0,
			"byteLength":48,
			"byteOffset":116876,
			"target":34962
		},
		{
			"buffer":0,
			"byteLength":32,
			"byteOffset":116924,
			"target":34962
		},
		{
			"buffer":0,
			"byteLength":48,
			"byteOffset":116956,
			"target":34962
		},
		{
			"buffer":0,
			"byteLength":48,
			"byteOffset":117004,
			"target":34962
		},
		{
			"buffer":0,
			"byteLength":32,
			"byteOffset":117052,
			"target":34962
		},
		{
			"buffer":0,
			"byteLength":48,
			"byteOffset":117084,
			"target":34962
		},
		{
			"buffer":0,
			"byteLength":48,
			"byteOffset":117132,
			"target":34962
		},
		{
			"buffer":0,
			"byteLength":32,
			"byteOffset":117180,
			"target":34962
		},
		{
			"buffer":0,
			"byteLength":48,
			"byteOffset":117212,
			"target":34962
		},
		{
			"buffer":0,
			"byteLength":48,
			"byteOffset":117260,
			"target":34962
		},
		{
			"buffer":0,
			"byteLength":32,
			"byteOffset":117308,
			"target":34962
		},
		{
			"buffer":0,
			"byteLength":48,
			"byteOffset":117340,
			"target":34962
		},
		{
			"buffer":0,
			"byteLength":48,
			"byteOffset":117388,
			"target":34962
		},
		{
			"buffer":0,
			"byteLength":32,
			"byteOffset":117436,
			"target":34962
		},
		{
			"buffer":0,
			"byteLength":48,
			"byteOffset":117468,
			"target":34962
		},
		{
			"buffer":0,
			"byteLength":48,
			"byteOffset":117516,
			"target":34962
		},
		{
			"buffer":0,
			"byteLength":32,
			"byteOffset":117564,
			"target":34962
		},
		{
			"buffer":0,
			"byteLength":560784,
			"byteOffset":117596,
			"target":34962
		},
		{
			"buffer":0,
			"byteLength":560784,
			"byteOffset":678380,
			"target":34962
		},
		{
			"buffer":0,
			"byteLength":373856,
			"byteOffset":1239164,
			"target":34962
		},
		{
			"buffer":0,
			"byteLength":484296,
			"byteOffset":1613020,
			"target":34963
		},
		{
			"buffer":0,
			"byteLength":48,
			"byteOffset":2097316,
			"target":34962
		},
		{
			"buffer":0,
			"byteLength":48,
			"byteOffset":2097364,
			"target":34962
		},
		{
			"buffer":0,
			"byteLength":32,
			"byteOffset":2097412,
			"target":34962
		},
		{
			"buffer":0,
			"byteLength":48,
			"byteOffset":2097444,
			"target":34962
		},
		{
			"buffer":0,
			"byteLength":48,
			"byteOffset":2097492,
			"target":34962
		},
		{
			"buffer":0,
			"byteLength":32,
			"byteOffset":2097540,
			"target":34962
		},
		{
			"buffer":0,
			"byteLength":48,
			"byteOffset":2097572,
			"target":34962
		},
		{
			"buffer":0,
			"byteLength":48,
			"byteOffset":2097620,
			"target":34962
		},
		{
			"buffer":0,
			"byteLength":32,
			"byteOffset":2097668,
			"target":34962
		},
		{
			"buffer":0,
			"byteLength":48,
			"byteOffset":2097700,
			"target":34962
		},
		{
			"buffer":0,
			"byteLength":48,
			"byteOffset":2097748,
			"target":34962
		},
		{
			"buffer":0,
			"byteLength":32,
			"byteOffset":2097796,
			"target":34962
		},
		{
			"buffer":0,
			"byteLength":48,
			"byteOffset":2097828,
			"target":34962
		},
		{
			"buffer":0,
			"byteLength":48,
			"byteOffset":2097876,
			"target":34962
		},
		{
			"buffer":0,
			"byteLength":32,
			"byteOffset":2097924,
			"target":34962
		},
		{
			"buffer":0,
			"byteLength":48,
			"byteOffset":2097956,
			"target":34962
		},
		{
			"buffer":0,
			"byteLength":48,
			"byteOffset":2098004,
			"target":34962
		},
		{
			"buffer":0,
			"byteLength":32,
			"byteOffset":2098052,
			"target":34962
		},
		{
			"buffer":0,
			"byteLength":48,
			"byteOffset":2098084,
			"target":34962
		},
		{
			"buffer":0,
			"byteLength":48,
			"byteOffset":2098132,
			"target":34962
		},
		{
			"buffer":0,
			"byteLength":32,
			"byteOffset":2098180,
			"target":34962
		},
		{
			"buffer":0,
			"byteLength":48,
			"byteOffset":2098212,
			"target":34962
		},
		{
			"buffer":0,
			"byteLength":48,
			"byteOffset":2098260,
			"target":34962
		},
		{
			"buffer":0,
			"byteLength":32,
			"byteOffset":2098308,
			"target":34962
		},
		{
			"buffer":0,
			"byteLength":17580,
			"byteOffset":2098340,
			"target":34962
		},
		{
			"buffer":0,
			"byteLength":17580,
			"byteOffset":2115920,
			"target":34962
		},
		{
			"buffer":0,
			"byteLength":11720,
			"byteOffset":2133500,
			"target":34962
		},
		{
			"buffer":0,
			"byteLength":4896,
			"byteOffset":2145220,
			"target":34963
		},
		{
			"buffer":0,
			"byteLength":48,
			"byteOffset":2150116,
			"target":34962
		},
		{
			"buffer":0,
			"byteLength":48,
			"byteOffset":2150164,
			"target":34962
		},
		{
			"buffer":0,
			"byteLength":32,
			"byteOffset":2150212,
			"target":34962
		},
		{
			"buffer":0,
			"byteLength":12,
			"byteOffset":2150244,
			"target":34963
		},
		{
			"buffer":0,
			"byteLength":48,
			"byteOffset":2150256,
			"target":34962
		},
		{
			"buffer":0,
			"byteLength":48,
			"byteOffset":2150304,
			"target":34962
		},
		{
			"buffer":0,
			"byteLength":32,
			"byteOffset":2150352,
			"target":34962
		},
		{
			"buffer":0,
			"byteLength":48,
			"byteOffset":2150384,
			"target":34962
		},
		{
			"buffer":0,
			"byteLength":48,
			"byteOffset":2150432,
			"target":34962
		},
		{
			"buffer":0,
			"byteLength":32,
			"byteOffset":2150480,
			"target":34962
		},
		{
			"buffer":0,
			"byteLength":48,
			"byteOffset":2150512,
			"target":34962
		},
		{
			"buffer":0,
			"byteLength":48,
			"byteOffset":2150560,
			"target":34962
		},
		{
			"buffer":0,
			"byteLength":32,
			"byteOffset":2150608,
			"target":34962
		},
		{
			"buffer":0,
			"byteLength":48,
			"byteOffset":2150640,
			"target":34962
		},
		{
			"buffer":0,
			"byteLength":48,
			"byteOffset":2150688,
			"target":34962
		},
		{
			"buffer":0,
			"byteLength":32,
			"byteOffset":2150736,
			"target":34962
		},
		{
			"buffer":0,
			"byteLength":48,
			"byteOffset":2150768,
			"target":34962
		},
		{
			"buffer":0,
			"byteLength":48,
			"byteOffset":2150816,
			"target":34962
		},
		{
			"buffer":0,
			"byteLength":32,
			"byteOffset":2150864,
			"target":34962
		},
		{
			"buffer":0,
			"byteLength":48,
			"byteOffset":2150896,
			"target":34962
		},
		{
			"buffer":0,
			"byteLength":48,
			"byteOffset":2150944,
			"target":34962
		},
		{
			"buffer":0,
			"byteLength":32,
			"byteOffset":2150992,
			"target":34962
		},
		{
			"buffer":0,
			"byteLength":48,
			"byteOffset":2151024,
			"target":34962
		},
		{
			"buffer":0,
			"byteLength":48,
			"byteOffset":2151072,
			"target":34962
		},
		{
			"buffer":0,
			"byteLength":32,
			"byteOffset":2151120,
			"target":34962
		},
		{
			"buffer":0,
			"byteLength":48,
			"byteOffset":2151152,
			"target":34962
		},
		{
			"buffer":0,
			"byteLength":48,
			"byteOffset":2151200,
			"target":34962
		},
		{
			"buffer":0,
			"byteLength":32,
			"byteOffset":2151248,
			"target":34962
		},
		{
			"buffer":0,
			"byteLength":48,
			"byteOffset":2151280,
			"target":34962
		},
		{
			"buffer":0,
			"byteLength":48,
			"byteOffset":2151328,
			"target":34962
		},
		{
			"buffer":0,
			"byteLength":32,
			"byteOffset":2151376,
			"target":34962
		},
		{
			"buffer":0,
			"byteLength":48,
			"byteOffset":2151408,
			"target":34962
		},
		{
			"buffer":0,
			"byteLength":48,
			"byteOffset":2151456,
			"target":34962
		},
		{
			"buffer":0,
			"byteLength":32,
			"byteOffset":2151504,
			"target":34962
		},
		{
			"buffer":0,
			"byteLength":48,
			"byteOffset":2151536,
			"target":34962
		},
		{
			"buffer":0,
			"byteLength":48,
			"byteOffset":2151584,
			"target":34962
		},
		{
			"buffer":0,
			"byteLength":32,
			"byteOffset":2151632,
			"target":34962
		},
		{
			"buffer":0,
			"byteLength":48,
			"byteOffset":2151664,
			"target":34962
		},
		{
			"buffer":0,
			"byteLength":48,
			"byteOffset":2151712,
			"target":34962
		},
		{
			"buffer":0,
			"byteLength":32,
			"byteOffset":2151760,
			"target":34962
		},
		{
			"buffer":0,
			"byteLength":48,
			"byteOffset":2151792,
			"target":34962
		},
		{
			"buffer":0,
			"byteLength":48,
			"byteOffset":2151840,
			"target":34962
		},
		{
			"buffer":0,
			"byteLength":32,
			"byteOffset":2151888,
			"target":34962
		},
		{
			"buffer":0,
			"byteLength":48,
			"byteOffset":2151920,
			"target":34962
		},
		{
			"buffer":0,
			"byteLength":48,
			"byteOffset":2151968,
			"target":34962
		},
		{
			"buffer":0,
			"byteLength":32,
			"byteOffset":2152016,
			"target":34962
		},
		{
			"buffer":0,
			"byteLength":48,
			"byteOffset":2152048,
			"target":34962
		},
		{
			"buffer":0,
			"byteLength":48,
			"byteOffset":2152096,
			"target":34962
		},
		{
			"buffer":0,
			"byteLength":32,
			"byteOffset":2152144,
			"target":34962
		},
		{
			"buffer":0,
			"byteLength":48,
			"byteOffset":2152176,
			"target":34962
		},
		{
			"buffer":0,
			"byteLength":48,
			"byteOffset":2152224,
			"target":34962
		},
		{
			"buffer":0,
			"byteLength":32,
			"byteOffset":2152272,
			"target":34962
		}
	],
	"samplers":[
		{
			"magFilter":9729,
			"minFilter":9987
		}
	],
	"buffers":[
		{
			"byteLength":2152304,
			"uri":"museu.bin"
		}
	]
}
